<svg width="76" height="76" viewBox="0 0 76 76" fill="none" xmlns="http://www.w3.org/2000/svg">
<g filter="url(#filter0_di_1773_17634)">
<circle cx="40" cy="36" r="30" fill="url(#paint0_linear_1773_17634)"/>
<circle cx="40" cy="36" r="30" fill="url(#paint1_radial_1773_17634)" fill-opacity="0.7"/>
</g>
<circle cx="51.3996" cy="17.4002" r="4.2" transform="rotate(90 51.3996 17.4002)" fill="#D7D5D5"/>
<circle cx="49.6" cy="51.6002" r="2.4" transform="rotate(90 49.6 51.6002)" fill="#C4C4C4"/>
<circle cx="35.2004" cy="21.5999" r="1.2" transform="rotate(90 35.2004 21.5999)" fill="#C5C5C5"/>
<circle cx="13.6008" cy="31.2" r="1.2" transform="rotate(90 13.6008 31.2)" fill="#707070"/>
<circle cx="59.2008" cy="34.8002" r="3.6" transform="rotate(90 59.2008 34.8002)" fill="#C9C9C9"/>
<circle cx="28.6004" cy="30.5998" r="1.8" transform="rotate(90 28.6004 30.5998)" fill="#9F9F9F"/>
<circle cx="26.2" cy="41.4001" r="1.8" transform="rotate(90 26.2 41.4001)" fill="#939393"/>
<circle cx="23.2008" cy="55.2001" r="3.6" transform="rotate(90 23.2008 55.2001)" fill="#797979"/>
<circle cx="36.4" cy="35.9999" r="3.6" transform="rotate(90 36.4 35.9999)" fill="#B7B7B7"/>
<defs>
<filter id="filter0_di_1773_17634" x="0" y="0" width="76" height="76" filterUnits="userSpaceOnUse" color-interpolation-filters="sRGB">
<feFlood flood-opacity="0" result="BackgroundImageFix"/>
<feColorMatrix in="SourceAlpha" type="matrix" values="0 0 0 0 0 0 0 0 0 0 0 0 0 0 0 0 0 0 127 0" result="hardAlpha"/>
<feMorphology radius="3" operator="dilate" in="SourceAlpha" result="effect1_dropShadow_1773_17634"/>
<feOffset dx="-2" dy="2"/>
<feGaussianBlur stdDeviation="2.5"/>
<feComposite in2="hardAlpha" operator="out"/>
<feColorMatrix type="matrix" values="0 0 0 0 0.748333 0 0 0 0 0.748333 0 0 0 0 0.748333 0 0 0 0.3 0"/>
<feBlend mode="normal" in2="BackgroundImageFix" result="effect1_dropShadow_1773_17634"/>
<feBlend mode="normal" in="SourceGraphic" in2="effect1_dropShadow_1773_17634" result="shape"/>
<feColorMatrix in="SourceAlpha" type="matrix" values="0 0 0 0 0 0 0 0 0 0 0 0 0 0 0 0 0 0 127 0" result="hardAlpha"/>
<feOffset dx="8" dy="-5"/>
<feComposite in2="hardAlpha" operator="arithmetic" k2="-1" k3="1"/>
<feColorMatrix type="matrix" values="0 0 0 0 0.551346 0 0 0 0 0.551207 0 0 0 0 0.551667 0 0 0 1 0"/>
<feBlend mode="normal" in2="shape" result="effect2_innerShadow_1773_17634"/>
</filter>
<linearGradient id="paint0_linear_1773_17634" x1="70" y1="6" x2="4.66141" y2="12.5227" gradientUnits="userSpaceOnUse">
<stop stop-color="#E7E7E7"/>
<stop offset="0.9999" stop-color="#9B9B9B"/>
</linearGradient>
<radialGradient id="paint1_radial_1773_17634" cx="0" cy="0" r="1" gradientUnits="userSpaceOnUse" gradientTransform="translate(15.5 60.5) rotate(-48.2245) scale(50.2842)">
<stop stop-color="#828282"/>
<stop offset="1" stop-color="#FDFDFD"/>
</radialGradient>
</defs>
</svg>
